<svg xmlns="http://www.w3.org/2000/svg" width="500" viewBox="0 0 375 135" height="180" version="1.0"><defs><clipPath id="a"><path d="M212.152 46H258v3h-45.848zm0 0"/></clipPath><clipPath id="b"><path d="M262 53h4v40.059h-4zm0 0"/></clipPath><clipPath id="c"><path d="M270 46h45.637v3H270zm0 0"/></clipPath><clipPath id="d"><path d="M262 2.23h4V42h-4zm0 0"/></clipPath></defs><path d="M82.425 84.41c-.21 6.575-1.37 12.532-3.484 17.876-2.125 5.273-4.871 9.824-8.235 13.656-2.742 3.082-5.75 5.722-9.03 7.922-3.356 2.125-6.813 3.734-10.376 4.828-3.562 1.094-7.058 1.64-10.484 1.64-2.95 0-5.828-.375-8.64-1.125-6.231-1.718-11.024-5.492-14.376-11.312-1.304-2.188-2.164-4.344-2.578-6.469a21.597 21.597 0 0 1-.516-4.625v-1.437c.344-3.625 1.442-6.739 3.297-9.344 1.844-2.54 3.797-4.223 5.86-5.047 1.5-.406 2.726-.539 3.687-.406.969.21 1.692.586 2.172 1.125.957 1.105 1.363 2.617 1.219 4.531a53.693 53.693 0 0 1-.61 5.234c-1.992-1.3-3.945-1.398-5.859-.296-1.918 1.093-3.219 2.84-3.906 5.234-.406 1.305-.543 2.742-.406 4.312.132 1.575.613 3.184 1.437 4.829 1.375 2.738 3.02 4.968 4.938 6.687 1.914 1.781 4.035 3.008 6.359 3.688 4.187 1.375 8.707 1.171 13.562-.61 4.864-1.855 9.25-5.008 13.157-9.453 3.289-3.695 6.066-8.187 8.328-13.469 2.187-5.343 3.453-11.332 3.797-17.968.281-6.926-.883-13.301-3.485-19.125-2.543-5.883-5.902-10.504-10.078-13.86-2.262-1.781-4.656-3.148-7.187-4.11a18.113 18.113 0 0 0-7.813-1.14c-3.219.211-6.437 1.375-9.656 3.5-3.156 2.055-6.137 5.235-8.938 9.547-2.199.961-3.671.555-4.421-1.219-.825-1.851-.383-3.976 1.328-6.375 2.406-2.258 5.008-4.11 7.812-5.547 2.875-1.507 5.82-2.609 8.844-3.296a36.874 36.874 0 0 1 7.703-.813c3.156 0 6.344.414 9.563 1.234 5.82 1.5 10.921 4.414 15.296 8.735 3.633 3.492 6.547 7.937 8.735 13.344 1.988 5 2.984 10.824 2.984 17.468zM43.691 52.865c.133.273.203 1.023.203 2.25.07.418.11.828.11 1.234 0 1.031-.04 2.266-.11 3.703-.137 3.774-.375 8.465-.719 14.078-.344 5.688-.719 11.375-1.125 17.063-.48 7.187-.89 13.625-1.234 19.312-.344 5.617-.383 8.66-.11 9.14-.824 1.095-1.984 1.61-3.484 1.548a6.91 6.91 0 0 1-1.14-.11c-2.126-.343-3.325-1.609-3.594-3.796.133-.551.304-1.508.515-2.875.133-1.301.305-2.91.516-4.829.27-3.562.508-7.843.719-12.843.207-5 .343-9.97.406-14.907.07-6.226.004-11.707-.203-16.437-.211-4.79-.653-7.36-1.328-7.703.675-2.946 2.18-4.969 4.515-6.063.82-.414 1.61-.625 2.36-.625 1.375 0 2.61.621 3.703 1.86zM103.278 82.551c-.2 2.262-.508 4.73-.922 7.406-.407 2.668-.782 5.34-1.125 8.016-.688 4.93-.965 9.383-.828 13.36.132 3.968 1.472 6.195 4.015 6.671 1.57.27 3.078-.82 4.516-3.28 1.437-2.54 2.703-5.286 3.797-8.235a83.073 83.073 0 0 0 1.75-5.64c.476-1.72.82-2.99 1.03-3.813.477-.133 1.095-.204 1.845-.204.757-.062 1.379.008 1.86.204-.212 1.105-.688 3.027-1.438 5.765-.688 2.805-1.649 5.649-2.875 8.531a30.008 30.008 0 0 1-2.172 4.407c-.813 1.437-1.703 2.672-2.672 3.703-.887.957-1.875 1.676-2.969 2.156a5.677 5.677 0 0 1-2.578.625h-.922c-3.281-.418-5.812-1.383-7.594-2.89-1.78-1.5-3.05-3.313-3.812-5.438-.613-1.781-.957-3.695-1.031-5.75V106.8c0-1.644.074-3.254.218-4.828a119.6 119.6 0 0 1 1.64-10.89c.688-3.352.622-5.649-.202-6.891.68-1.438 2.457-2.461 5.344-3.078.75-.207 1.43-.313 2.046-.313 1.645 0 2.672.586 3.079 1.75zM94.34 66.426c.281-1.238.078-2.367-.61-3.39-.476-.688-.718-1.614-.718-2.782l.203-1.64c.273-1.852 1.438-3.02 3.5-3.5 1.094-.196 2.016-.297 2.766-.297s1.363.101 1.843.297c1.301.554 2.332 1.652 3.094 3.297.477 1.093.719 2.187.719 3.28 0 .555-.07 1.102-.203 1.641-.418 1.72-2.102 2.922-5.047 3.61-1.156.273-2.149.406-2.969.406-1.242 0-2.101-.305-2.578-.922zm0 0" fill="#a0a4aa"/><path d="M140.173 86.77a8.84 8.84 0 0 1-.203 4.625c-.48 1.437-1.199 2.84-2.156 4.203-2.2 3.023-5.25 5.387-9.156 7.094a25.981 25.981 0 0 1-3.688 1.437c.196.555.399 1.172.61 1.86.82 2.875 1.953 5.406 3.39 7.593.82 1.168 1.711 2.125 2.672 2.875.957.762 1.985 1.211 3.078 1.344 1.852.063 3.5-.242 4.938-.922 1.508-.758 2.879-1.789 4.11-3.093 2.257-2.32 4.038-5.196 5.343-8.625 1.3-3.489 2.227-6.47 2.781-8.938.477-.07 1.055-.11 1.735-.11.687.075 1.336.141 1.953.204-.543 2.605-1.57 5.996-3.078 10.172-1.575 4.117-3.836 7.68-6.782 10.687a17.208 17.208 0 0 1-5.453 3.703c-1.773.82-3.758 1.235-5.953 1.235h-1.031c-5.063-.344-8.965-1.953-11.703-4.828-2.813-2.875-4.735-6.16-5.766-9.86a24.97 24.97 0 0 1-.922-5.86v-.827c0-1.645.172-3.188.516-4.625 1.094-5.477 3.008-9.243 5.75-11.297 2.738-2.051 4.969-3.317 6.687-3.797a11.236 11.236 0 0 1 3.391-.516c1.437 0 2.91.274 4.422.813 2.531 1.031 4.035 2.851 4.515 5.453zm-14.28 13.156c2.05-1.238 3.796-3.055 5.234-5.453 1.437-2.469 2.257-4.316 2.468-5.547.344-1.988.239-3.703-.312-5.14-.543-1.508-1.914-1.442-4.11.203-.824.617-1.543 1.406-2.156 2.375a18.727 18.727 0 0 0-1.328 3.172c-.687 2.062-1.101 4.085-1.234 6.062-.211 1.93-.278 3.164-.203 3.703 0 .418.03.867.093 1.344a4.81 4.81 0 0 0 1.547-.719zm0 0" fill="#a0a4aa"/><path d="M144.585 71.457h-.203c-.613 0-.922-.613-.922-1.843v-.22c0-1.288.277-2.077.828-2.358 1.156-.54 3.656-1.29 7.5-2.25l.61-.11c.074-1.644.109-3.187.109-4.625.062-3.289-.383-5.484-1.344-6.578.555-1.508 1.922-2.398 4.11-2.672h1.03c1.782 0 3.391.547 4.829 1.64.687.555 1.3 1.278 1.844 2.173.476.812.789 1.84.937 3.078a45.818 45.818 0 0 0-.515 3.906c2.394-.625 4.515-1.312 6.359-2.062 1.988-.82 3.258-1.579 3.812-2.266 2.188.21 3.282 1.172 3.282 2.89v.5c-.211 1.93-1.168 3.336-2.875 4.22-1.168.554-3.602 1.136-7.297 1.75l-3.797.609c-.074.625-.11 1.277-.11 1.953-.406 4.867-.609 9.969-.609 15.312a155.772 155.772 0 0 0 0 8.328c.063 2.743.196 5.375.406 7.907.344 4.593.926 8.5 1.75 11.718.82 3.22 1.989 5 3.5 5.344 1.094.207 2.118.106 3.079-.312.957-.344 1.878-.89 2.765-1.64 1.645-1.509 3.051-3.567 4.219-6.173 1.164-2.531 2.125-4.926 2.875-7.187.344-1.227.648-2.36.922-3.39a55.9 55.9 0 0 0 .625-2.267 7.74 7.74 0 0 1 1.844-.203c.75 0 1.363.07 1.843.203-.199 1.032-.64 2.813-1.328 5.344-.687 2.469-1.683 5.04-2.984 7.703a42.26 42.26 0 0 1-2.25 4.328 30.121 30.121 0 0 1-2.89 3.594c-1.294 1.301-2.731 2.328-4.313 3.078a9.45 9.45 0 0 1-3.907.828c-.48 0-.96-.039-1.437-.109-3.418-.406-6.156-1.605-8.219-3.594-2.125-1.988-3.734-4.488-4.828-7.5-1.226-3.156-2.016-6.718-2.36-10.687-.269-3.219-.406-6.473-.406-9.766v-2.469c.063-2.664.165-5.332.297-8 .211-2.675.383-5.25.516-7.718.074-.957.14-1.88.203-2.766a57.991 57.991 0 0 1-3.281.719c-1.988.543-3.395 1.09-4.219 1.64zm0 0" fill="#a0a4aa"/><path d="M192.993 55.426c.132 1.23.132 3.387 0 6.469a454.783 454.783 0 0 1-.625 10.484c-.211 1.992-.383 4.012-.516 6.063a147.418 147.418 0 0 1-.516 5.969 394.55 394.55 0 0 1-.812 9.343c-.211 2.606-.313 4.25-.313 4.938.207-.688 1.063-2.57 2.563-5.656 1.508-3.157 3.46-5.692 5.86-7.61.82-.676 1.679-1.187 2.577-1.531.883-.414 1.774-.625 2.672-.625 1.57.074 2.875.59 3.907 1.547.957 1.031 1.707 2.336 2.25 3.906.613 1.711 1.062 3.625 1.343 5.75.196 2.188.332 4.418.407 6.688.132 4.18.238 7.976.312 11.39.063 3.5.781 5.387 2.156 5.656 1.645.27 3.219-.859 4.719-3.39a48.483 48.483 0 0 0 3.813-8.328 110 110 0 0 0 1.734-5.75c.476-1.707.82-2.973 1.031-3.797.477-.27 1.098-.406 1.86-.406.75.062 1.328.265 1.734.609-.137.75-.375 1.71-.719 2.875a66.054 66.054 0 0 1-1.015 3.797c-.762 2.543-1.758 5.215-2.985 8.015-1.242 2.813-2.746 5.18-4.515 7.094-1.243 1.238-2.579 2.195-4.016 2.875-1.438.688-3.047.895-4.828.625-1.918-.281-3.461-1-4.625-2.156-1.094-1.106-1.95-2.473-2.563-4.11-.554-1.437-.898-3.015-1.031-4.734a46.206 46.206 0 0 1-.312-5.437c0-4.188.101-8.094.312-11.72.207-3.632-.617-5.519-2.469-5.655-1.093-.133-2.36.824-3.797 2.875a53.522 53.522 0 0 0-3.812 6.78 42.217 42.217 0 0 0-1.844 4.735c-.48 1.512-.758 2.711-.828 3.594-.2 2.95-.297 5.484-.297 7.61 0 2.124-.039 4.453-.11 6.984-.687 1.57-2.468 2.566-5.343 2.984-.477.063-.89.094-1.234.094-2.051 0-3.114-.89-3.188-2.672.344-1.844.727-5.539 1.14-11.094.345-5.613.618-11.64.813-18.078.211-5.144.313-10.18.313-15.11.074-4.937.008-9.046-.203-12.327-.133-1.852-.27-3.328-.407-4.422-.207-1.164-.445-1.922-.718-2.266.136-1.3 1.195-2.633 3.172-4 1.507-1.031 3.02-1.578 4.53-1.64.407 0 .848.07 1.329.203a4.659 4.659 0 0 1 1.75.812c.55.418 1 1 1.344 1.75zm0 0" fill="#a0a4aa"/><path d="M243.135 79.364c1.3.28 1.984.867 2.047 1.75 0 .96-.309 1.886-.922 2.78-1.094-.07-2.09.169-2.985.72-.96.543-1.78 1.328-2.468 2.36-1.305 1.917-2.227 4.417-2.766 7.5a42.265 42.265 0 0 0-.625 9.343c.207 3.906 1 7.402 2.375 10.484 1.363 3.086 3.281 4.594 5.75 4.531 1.844-.074 3.453-2.128 4.828-6.171a82.877 82.877 0 0 0 1.64-5.86l-.718-1.031c-2.125-3.145-3.734-6.633-4.828-10.469-1.031-3.844-1.07-7.097-.11-9.765.415-1.165 1.067-2.125 1.954-2.875.82-.82 1.921-1.368 3.296-1.641 4.04-1.031 6.883.133 8.532 3.484 1.644 3.293 2.297 7.305 1.953 12.032a39.836 39.836 0 0 1-.938 6.156 41.976 41.976 0 0 1-1.843 6.062c.82.555 1.609.86 2.359.922 1.102.074 2.098-.129 2.984-.61a7.592 7.592 0 0 0 2.47-1.952c1.3-1.438 2.327-3.22 3.077-5.344.758-2.125 1.274-3.8 1.547-5.031.82 0 2.086.03 3.797.093-.273 1.375-.922 3.434-1.953 6.172a19.773 19.773 0 0 1-4.516 6.985 13.2 13.2 0 0 1-3.703 2.468c-1.367.688-2.906.961-4.625.813-1.023-.063-2.047-.399-3.078-1.016-1.168 2.188-2.54 4.106-4.11 5.75-2.335 2.532-5.042 3.832-8.124 3.907h-.204c-3.218 0-5.996-.618-8.328-1.844-2.398-1.168-4.343-2.781-5.843-4.844-1.106-1.437-1.961-3.078-2.579-4.922a25.559 25.559 0 0 1-1.234-5.547 20.882 20.882 0 0 1-.203-2.875c0-2.675.414-5.347 1.234-8.015 1.032-3.633 2.676-6.72 4.938-9.25a17.04 17.04 0 0 1 5.234-3.907c1.852-.894 3.91-1.343 6.172-1.343zm8.015 11.312c-.343-2.601-1.168-3.77-2.468-3.5-.899.274-1.172 1.371-.829 3.297.27 1.918.922 4.106 1.954 6.563.406.968.816 1.933 1.234 2.89.406-3.5.441-6.582.11-9.25zm0 0" fill="#a0a4aa"/><path d="M287.318 79.364c1.3.28 1.984.867 2.046 1.75 0 .96-.308 1.886-.921 2.78-1.094-.07-2.09.169-2.985.72-.96.543-1.781 1.328-2.469 2.36-1.304 1.917-2.226 4.417-2.765 7.5a42.265 42.265 0 0 0-.625 9.343c.207 3.906 1 7.402 2.375 10.484 1.363 3.086 3.281 4.594 5.75 4.531 1.844-.074 3.453-2.128 4.828-6.171a82.877 82.877 0 0 0 1.64-5.86l-.718-1.031c-2.125-3.145-3.735-6.633-4.828-10.469-1.032-3.844-1.07-7.097-.11-9.765.414-1.165 1.067-2.125 1.953-2.875.82-.82 1.922-1.368 3.297-1.641 4.04-1.031 6.883.133 8.532 3.484 1.644 3.293 2.296 7.305 1.953 12.032a39.836 39.836 0 0 1-.938 6.156 41.976 41.976 0 0 1-1.844 6.062c.82.555 1.61.86 2.36.922 1.101.074 2.097-.129 2.984-.61a7.592 7.592 0 0 0 2.469-1.952c1.3-1.438 2.328-3.22 3.078-5.344.758-2.125 1.273-3.8 1.547-5.031.82 0 2.086.03 3.797.093-.274 1.375-.922 3.434-1.953 6.172a19.773 19.773 0 0 1-4.516 6.985 13.2 13.2 0 0 1-3.703 2.468c-1.367.688-2.906.961-4.625.813-1.024-.063-2.047-.399-3.078-1.016-1.168 2.188-2.54 4.106-4.11 5.75-2.336 2.532-5.043 3.832-8.125 3.907h-.203c-3.218 0-5.996-.618-8.328-1.844-2.398-1.168-4.344-2.781-5.844-4.844-1.105-1.437-1.96-3.078-2.578-4.922a25.559 25.559 0 0 1-1.234-5.547 20.882 20.882 0 0 1-.203-2.875c0-2.675.414-5.347 1.234-8.015 1.031-3.633 2.676-6.72 4.938-9.25a17.04 17.04 0 0 1 5.234-3.907c1.852-.894 3.91-1.343 6.172-1.343zm8.015 11.312c-.344-2.601-1.168-3.77-2.469-3.5-.898.274-1.171 1.371-.828 3.297.27 1.918.922 4.106 1.953 6.563.407.968.817 1.933 1.235 2.89.406-3.5.441-6.582.11-9.25zm0 0" fill="#a0a4aa"/><path d="M337.453 81.114c.207-2.739.344-5.375.407-7.907.28-4.726.422-8.941.422-12.64 0-3.696-.278-6.332-.829-7.906 1.782-1.852 3.735-2.782 5.86-2.782.75 0 1.504.106 2.265.313 2.938.887 4.407 2.699 4.407 5.437.07.555.039 1.375-.094 2.47a62.154 62.154 0 0 1-.422 4.108 494.655 494.655 0 0 1-1.328 10.282c-.617 3.968-1.2 7.906-1.75 11.812-.543 3.969-1.024 7.602-1.438 10.89-.406 3.294-.648 5.622-.718 6.985 0 .899.035 1.961.11 3.188 0 1.168.065 2.336.202 3.5.27 2.261.68 4.351 1.235 6.265.539 1.844 1.289 2.871 2.25 3.078 1.3.207 2.503-.27 3.609-1.437 1.094-1.094 2.082-2.566 2.969-4.422 1.3-2.664 2.398-5.578 3.297-8.734.82-3.22 1.398-5.477 1.734-6.782a5.618 5.618 0 0 1 2.062-.406 4.96 4.96 0 0 1 1.75.313c-.21 1.093-.687 3.047-1.437 5.86-.762 2.804-1.793 5.679-3.094 8.624a45.442 45.442 0 0 1-2.25 4.516c-.898 1.511-1.855 2.78-2.875 3.812-1.031 1.02-2.133 1.836-3.297 2.453a7.321 7.321 0 0 1-3.187.735h-.516a10.822 10.822 0 0 1-3.594-1.032 10.743 10.743 0 0 1-2.671-2.265 16.726 16.726 0 0 1-3.282-5.235c-.687-1.914-1.101-3.285-1.234-4.109-.344.617-1.371 2.016-3.078 4.203-1.649 2.2-3.875 3.637-6.688 4.313-3.086.757-5.449.797-7.093.11-1.637-.688-2.97-1.782-4-3.282-1.782-2.602-2.774-5.207-2.985-7.813v-2.062c0-1.707.14-3.281.422-4.719.2-1.031.438-1.922.719-2.672.273-.82.437-1.441.5-1.86 1.375-4.237 3.43-7.39 6.172-9.452 2.812-1.977 4.765-3.11 5.86-3.39 4.382-1.157 7.812-1.157 10.28 0 .332.21.707.417 1.125.624.063-1.031.13-2.023.203-2.984zm-3.078 4.312a5.81 5.81 0 0 0-2.984.625c-.961.406-1.852 1.059-2.672 1.953a17.776 17.776 0 0 0-2.266 3.078 24.968 24.968 0 0 0-1.734 3.907 28.817 28.817 0 0 0-1.86 7.5c-.343 2.53-.343 4.484 0 5.86.344 1.437.993 2.913 1.954 4.42.957 1.575 2.297 1.884 4.015.923 1.633-.957 3.313-3.149 5.032-6.578 1.644-3.489 2.707-9.446 3.187-17.875l.094-2.985c-.824-.476-1.746-.754-2.766-.828zm0 0" fill="#a0a4aa"/><path d="M80.254 82.928c-.211 6.574-1.375 12.527-3.5 17.86-2.118 5.273-4.852 9.827-8.204 13.671-2.742 3.07-5.757 5.707-9.046 7.906-3.356 2.114-6.813 3.723-10.375 4.829-3.563 1.093-7.055 1.64-10.47 1.64a32.88 32.88 0 0 1-8.624-1.14c-6.242-1.711-11.04-5.477-14.39-11.297-1.306-2.188-2.157-4.344-2.563-6.47a21.538 21.538 0 0 1-.516-4.608v-1.454c.344-3.625 1.441-6.738 3.297-9.343 1.844-2.532 3.789-4.207 5.844-5.032 1.507-.406 2.742-.539 3.703-.406.957.211 1.676.586 2.156 1.125.957 1.094 1.367 2.602 1.234 4.516-.136 1.93-.343 3.68-.625 5.25-1.98-1.301-3.93-1.406-5.843-.313-1.918 1.094-3.22 2.84-3.907 5.235-.418 1.304-.554 2.742-.406 4.312.133 1.574.613 3.184 1.438 4.828 1.363 2.739 3.004 4.969 4.922 6.688 1.914 1.77 4.039 3 6.375 3.687 4.175 1.375 8.69 1.172 13.546-.61 4.864-1.855 9.25-5.007 13.157-9.452 3.28-3.696 6.05-8.18 8.312-13.453 2.188-5.344 3.453-11.332 3.797-17.97.281-6.913-.883-13.284-3.484-19.108-2.532-5.883-5.887-10.504-10.063-13.86-2.262-1.781-4.656-3.148-7.187-4.11a18.164 18.164 0 0 0-7.813-1.14c-3.219.211-6.437 1.375-9.656 3.5-3.149 2.055-6.125 5.235-8.938 9.547-2.187.96-3.656.547-4.406-1.234-.824-1.844-.383-3.961 1.328-6.36 2.395-2.258 5-4.11 7.813-5.547 2.875-1.507 5.816-2.609 8.828-3.296a36.874 36.874 0 0 1 7.703-.813c3.145 0 6.328.414 9.547 1.234 5.82 1.5 10.926 4.407 15.312 8.72 3.625 3.5 6.532 7.952 8.72 13.359 1.987 5 2.984 10.82 2.984 17.453zm-38.72-31.531c.134.273.204 1.023.204 2.25.07.418.11.828.11 1.234 0 1.031-.04 2.266-.11 3.703-.137 3.762-.375 8.45-.719 14.063-.344 5.687-.719 11.37-1.125 17.047-.48 7.199-.89 13.636-1.234 19.312-.344 5.617-.383 8.66-.11 9.14-.824 1.094-1.984 1.61-3.484 1.548a6.91 6.91 0 0 1-1.14-.11c-2.118-.344-3.313-1.61-3.594-3.797.132-.55.304-1.508.515-2.875.133-1.3.305-2.91.516-4.828.27-3.562.508-7.844.719-12.844.207-5 .343-9.96.406-14.89.07-6.227.004-11.707-.203-16.438-.2-4.789-.64-7.351-1.328-7.687.687-2.946 2.191-4.969 4.515-6.063.82-.414 1.61-.625 2.36-.625 1.375 0 2.609.621 3.703 1.86zM101.098 81.069a129.92 129.92 0 0 1-.922 7.406 354.637 354.637 0 0 0-1.125 8c-.687 4.93-.965 9.383-.828 13.36.133 3.968 1.469 6.194 4 6.671 1.582.27 3.094-.82 4.531-3.281 1.438-2.54 2.703-5.281 3.797-8.219a85.484 85.484 0 0 0 1.75-5.656c.477-1.707.816-2.973 1.016-3.797.476-.133 1.097-.203 1.86-.203.75-.07 1.362-.004 1.843.203-.211 1.094-.688 3.012-1.438 5.75-.687 2.812-1.648 5.656-2.875 8.531a29.196 29.196 0 0 1-2.156 4.406c-.824 1.438-1.715 2.672-2.672 3.704-.887.957-1.883 1.675-2.984 2.156a5.65 5.65 0 0 1-2.563.625h-.922c-3.293-.418-5.828-1.383-7.609-2.89-1.773-1.5-3.035-3.313-3.797-5.438-.613-1.782-.953-3.696-1.015-5.75v-1.328c0-1.645.07-3.254.203-4.829.406-3.843.953-7.472 1.64-10.89.688-3.352.621-5.649-.203-6.89.68-1.438 2.457-2.462 5.344-3.079.75-.207 1.43-.312 2.047-.312 1.644 0 2.672.585 3.078 1.75zM92.16 64.944c.282-1.227.079-2.36-.609-3.391-.477-.676-.719-1.598-.719-2.766l.203-1.64c.274-1.852 1.43-3.02 3.485-3.5 1.101-.207 2.031-.313 2.781-.313s1.363.106 1.844.313c1.3.554 2.328 1.652 3.078 3.297.476 1.093.719 2.187.719 3.28 0 .544-.07 1.09-.203 1.641-.407 1.711-2.086 2.907-5.032 3.594-1.156.274-2.148.406-2.968.406-1.243 0-2.102-.304-2.579-.921zm0 0" fill="#3e3e3b"/><path d="M137.968 85.287a8.84 8.84 0 0 1-.203 4.625c-.48 1.438-1.2 2.84-2.157 4.203-2.187 3.012-5.234 5.375-9.14 7.094a25.771 25.771 0 0 1-3.703 1.438c.207.543.414 1.156.625 1.843.82 2.875 1.953 5.407 3.39 7.594.82 1.168 1.711 2.125 2.672 2.875.957.762 1.985 1.211 3.078 1.344 1.844.062 3.485-.242 4.922-.922 1.508-.758 2.88-1.79 4.11-3.094 2.257-2.32 4.039-5.195 5.343-8.625 1.301-3.488 2.227-6.468 2.782-8.937a13.618 13.618 0 0 1 1.734-.094c.687.063 1.336.133 1.953.203-.543 2.606-1.57 5.996-3.078 10.172-1.574 4.105-3.836 7.664-6.781 10.672a17.272 17.272 0 0 1-5.438 3.703c-1.781.82-3.765 1.234-5.953 1.234h-1.031c-5.074-.343-8.977-1.953-11.703-4.828-2.813-2.875-4.735-6.16-5.766-9.86a24.97 24.97 0 0 1-.922-5.858v-.813c0-1.645.172-3.187.516-4.625 1.094-5.477 3.008-9.242 5.75-11.297 2.738-2.05 4.96-3.316 6.672-3.797a11.33 11.33 0 0 1 3.39-.515c1.438 0 2.91.273 4.422.812 2.531 1.031 4.035 2.852 4.516 5.453zm-14.266 13.14c2.051-1.226 3.797-3.038 5.235-5.437 1.437-2.468 2.257-4.316 2.468-5.546.332-1.989.227-3.704-.312-5.141-.555-1.508-1.922-1.442-4.11.203-.824.617-1.542 1.402-2.156 2.36-.554 1.03-1 2.093-1.344 3.187-.68 2.055-1.085 4.074-1.218 6.062-.211 1.918-.282 3.153-.219 3.704 0 .406.035.851.11 1.328a4.43 4.43 0 0 0 1.546-.72zm0 0" fill="#3e3e3b"/><path d="M142.395 69.975h-.22c-.612 0-.92-.614-.92-1.844v-.203c0-1.3.276-2.086.827-2.36 1.168-.55 3.668-1.304 7.5-2.265l.61-.11c.074-1.632.109-3.171.109-4.609.062-3.289-.383-5.484-1.344-6.578.555-1.508 1.922-2.398 4.11-2.672h1.03c1.782 0 3.391.547 4.829 1.64.687.555 1.3 1.274 1.844 2.157.476.824.785 1.855.922 3.094a56.184 56.184 0 0 0-.516 3.89c2.406-.613 4.531-1.296 6.375-2.046 1.988-.82 3.254-1.579 3.797-2.266 2.195.21 3.297 1.168 3.297 2.875v.516c-.211 1.917-1.168 3.324-2.875 4.218-1.168.543-3.602 1.121-7.297 1.735-1.305.21-2.57.418-3.797.625a16.35 16.35 0 0 0-.11 1.953c-.406 4.855-.609 9.953-.609 15.297a155.772 155.772 0 0 0 0 8.328c.063 2.73.195 5.367.406 7.906.344 4.586.926 8.484 1.75 11.703.813 3.219 1.973 5 3.485 5.344 1.094.207 2.117.105 3.078-.313.957-.343 1.883-.89 2.781-1.64 1.645-1.508 3.047-3.563 4.203-6.156 1.164-2.54 2.125-4.942 2.875-7.204.344-1.226.649-2.351.922-3.375.281-.968.488-1.722.625-2.265a7.86 7.86 0 0 1 1.844-.203c.758 0 1.379.07 1.86.203-.212 1.031-.657 2.812-1.344 5.344-.688 2.46-1.684 5.027-2.985 7.703-.68 1.5-1.43 2.937-2.25 4.312a31.23 31.23 0 0 1-2.875 3.594c-1.305 1.3-2.742 2.328-4.312 3.078a9.53 9.53 0 0 1-3.907.828c-.48 0-.96-.039-1.437-.11-3.43-.405-6.168-1.605-8.219-3.593-2.125-1.988-3.734-4.488-4.828-7.5-1.227-3.145-2.016-6.703-2.36-10.672-.269-3.219-.406-6.473-.406-9.765v-2.47c.063-2.663.164-5.331.297-8 .211-2.675.383-5.241.516-7.702.074-.957.14-1.883.203-2.782a57.992 57.992 0 0 1-3.281.72c-1.988.554-3.39 1.1-4.203 1.64zm0 0" fill="#3e3e3b"/><path d="M190.758 53.96c.132 1.23.132 3.386 0 6.468-.137 3.148-.34 6.637-.61 10.469-.21 1.992-.383 4.011-.515 6.062a147.419 147.419 0 0 1-.516 5.969 403.88 403.88 0 0 1-.813 9.344c-.21 2.593-.312 4.234-.312 4.922.207-.688 1.062-2.567 2.562-5.641 1.508-3.156 3.461-5.692 5.86-7.61.82-.675 1.676-1.187 2.562-1.53.895-.415 1.785-.626 2.672-.626 1.57.074 2.875.59 3.906 1.547.957 1.024 1.707 2.324 2.25 3.906.625 1.711 1.07 3.625 1.344 5.75.207 2.188.344 4.414.406 6.672.133 4.18.239 7.98.313 11.407.062 3.492.781 5.37 2.156 5.64 1.645.27 3.219-.86 4.719-3.39a48.737 48.737 0 0 0 3.812-8.313 110 110 0 0 0 1.735-5.75c.476-1.719.82-2.988 1.031-3.812.477-.27 1.094-.407 1.844-.407.758.074 1.344.282 1.75.625-.137.75-.375 1.711-.719 2.875a65.705 65.705 0 0 1-1.031 3.797c-.75 2.531-1.742 5.203-2.969 8.016-1.242 2.804-2.75 5.164-4.531 7.078-1.23 1.226-2.563 2.187-4 2.875-1.438.687-3.047.894-4.828.625-1.918-.281-3.461-1-4.625-2.156-1.094-1.106-1.95-2.473-2.563-4.11-.555-1.437-.898-3.015-1.031-4.734a48.89 48.89 0 0 1-.297-5.438c0-4.175.098-8.078.297-11.703.207-3.633-.61-5.52-2.453-5.656-1.106-.133-2.375.824-3.813 2.875-1.367 2.055-2.633 4.313-3.797 6.781a42.62 42.62 0 0 0-1.843 4.719c-.48 1.512-.758 2.71-.828 3.594-.2 2.949-.297 5.484-.297 7.61 0 2.124-.04 4.452-.11 6.984-.687 1.57-2.468 2.562-5.343 2.968-.477.07-.891.11-1.235.11-2.05 0-3.113-.891-3.187-2.672.343-1.844.726-5.54 1.14-11.094.344-5.613.617-11.64.813-18.078.21-5.133.312-10.164.312-15.094.074-4.926.008-9.035-.203-12.328-.133-1.844-.27-3.312-.406-4.406-.207-1.164-.445-1.922-.719-2.266.137-1.3 1.195-2.633 3.172-4 1.508-1.031 3.02-1.582 4.531-1.656.407 0 .848.074 1.328.219a4.659 4.659 0 0 1 1.75.812c.54.418.985 1 1.329 1.75zm0 0" fill="#3e3e3b"/><path d="M240.88 77.881c1.301.281 1.989.867 2.063 1.75 0 .96-.313 1.887-.938 2.781-1.093-.07-2.086.168-2.968.719-.961.543-1.782 1.328-2.47 2.36-1.304 1.917-2.226 4.417-2.765 7.5a42.265 42.265 0 0 0-.625 9.343c.207 3.906.992 7.399 2.36 10.469 1.375 3.086 3.289 4.594 5.75 4.531 1.851-.074 3.46-2.129 4.828-6.172a78.276 78.276 0 0 0 1.656-5.843l-.719-1.032c-2.125-3.156-3.734-6.648-4.828-10.484-1.031-3.832-1.07-7.082-.11-9.75.407-1.164 1.055-2.125 1.954-2.875.82-.82 1.914-1.367 3.281-1.64 4.04-1.032 6.883.132 8.531 3.484 1.645 3.293 2.297 7.297 1.954 12.015a38.814 38.814 0 0 1-.922 6.172 41.128 41.128 0 0 1-1.86 6.047c.82.555 1.61.867 2.36.938 1.101.062 2.097-.145 2.984-.625a7.592 7.592 0 0 0 2.469-1.954c1.3-1.437 2.328-3.218 3.078-5.343.75-2.114 1.266-3.79 1.547-5.032.812 0 2.078.04 3.797.11-.274 1.367-.922 3.418-1.953 6.156-1.032 2.68-2.54 5.008-4.516 6.984a13.2 13.2 0 0 1-3.703 2.47c-1.367.687-2.906.964-4.625.827-1.024-.07-2.047-.414-3.078-1.031-1.168 2.188-2.54 4.105-4.11 5.75-2.324 2.531-5.027 3.832-8.11 3.906h-.202c-3.219 0-5.996-.62-8.328-1.86-2.399-1.155-4.344-2.757-5.844-4.812-1.106-1.445-1.961-3.093-2.578-4.937a25.559 25.559 0 0 1-1.235-5.547 20.882 20.882 0 0 1-.203-2.875c0-2.664.414-5.336 1.235-8.016 1.03-3.625 2.675-6.703 4.937-9.234a17.04 17.04 0 0 1 5.235-3.906c1.843-.895 3.894-1.344 6.156-1.344zm8.016 11.313c-.344-2.602-1.168-3.77-2.469-3.5-.886.273-1.156 1.367-.812 3.28.27 1.919.914 4.11 1.937 6.579.414.96.828 1.918 1.235 2.875.414-3.488.453-6.567.109-9.234zm0 0" fill="#3e3e3b"/><path d="M285.044 77.881c1.3.281 1.988.867 2.062 1.75 0 .96-.312 1.887-.937 2.781-1.094-.07-2.086.168-2.97.719-.96.543-1.78 1.328-2.468 2.36-1.305 1.917-2.226 4.417-2.765 7.5a42.265 42.265 0 0 0-.625 9.343c.207 3.906.992 7.399 2.359 10.469 1.375 3.086 3.289 4.594 5.75 4.531 1.851-.074 3.46-2.129 4.828-6.172a78.276 78.276 0 0 0 1.656-5.843l-.718-1.032c-2.125-3.156-3.735-6.648-4.829-10.484-1.03-3.832-1.07-7.082-.109-9.75.406-1.164 1.055-2.125 1.953-2.875.82-.82 1.914-1.367 3.281-1.64 4.04-1.032 6.883.132 8.532 3.484 1.644 3.293 2.297 7.297 1.953 12.015a38.814 38.814 0 0 1-.922 6.172 41.128 41.128 0 0 1-1.86 6.047c.82.555 1.61.867 2.36.938 1.101.062 2.098-.145 2.984-.625a7.592 7.592 0 0 0 2.469-1.954c1.3-1.437 2.328-3.218 3.078-5.343.75-2.114 1.266-3.79 1.547-5.032.813 0 2.078.04 3.797.11-.274 1.367-.922 3.418-1.953 6.156-1.031 2.68-2.54 5.008-4.516 6.984a13.2 13.2 0 0 1-3.703 2.47c-1.367.687-2.906.964-4.625.827-1.023-.07-2.047-.414-3.078-1.031-1.168 2.188-2.54 4.105-4.11 5.75-2.324 2.531-5.027 3.832-8.109 3.906h-.203c-3.219 0-5.996-.62-8.328-1.86-2.399-1.155-4.344-2.757-5.844-4.812-1.105-1.445-1.96-3.093-2.578-4.937a25.559 25.559 0 0 1-1.234-5.547 20.882 20.882 0 0 1-.203-2.875c0-2.664.414-5.336 1.234-8.016 1.031-3.625 2.676-6.703 4.937-9.234a17.04 17.04 0 0 1 5.235-3.906c1.844-.895 3.894-1.344 6.156-1.344zm8.015 11.313c-.343-2.602-1.168-3.77-2.468-3.5-.887.273-1.157 1.367-.813 3.28.27 1.919.914 4.11 1.938 6.579.414.96.828 1.918 1.234 2.875.414-3.488.453-6.567.11-9.234zm0 0" fill="#3e3e3b"/><path d="M335.16 79.631c.207-2.738.348-5.375.422-7.906.27-4.719.406-8.926.406-12.625 0-3.696-.277-6.336-.828-7.922 1.781-1.844 3.734-2.766 5.86-2.766.75 0 1.503.106 2.265.313 2.938.886 4.406 2.699 4.406 5.437.07.555.04 1.375-.093 2.469a62.154 62.154 0 0 1-.422 4.11 487.877 487.877 0 0 1-1.328 10.265 840.82 840.82 0 0 0-1.75 11.813c-.543 3.968-1.024 7.601-1.438 10.89-.406 3.281-.648 5.61-.719 6.985 0 .886.035 1.945.11 3.171 0 1.168.066 2.336.203 3.5.27 2.262.68 4.352 1.234 6.266.54 1.844 1.29 2.871 2.25 3.078 1.3.207 2.5-.27 3.594-1.437 1.101-1.094 2.098-2.567 2.984-4.422 1.301-2.664 2.395-5.57 3.282-8.719.82-3.219 1.406-5.477 1.75-6.781a5.618 5.618 0 0 1 2.062-.406c.613 0 1.191.101 1.734.296-.199 1.106-.68 3.059-1.437 5.86-.75 2.812-1.777 5.687-3.078 8.625a49.112 49.112 0 0 1-2.25 4.515c-.899 1.512-1.856 2.782-2.875 3.813-1.031 1.02-2.133 1.836-3.297 2.453a7.473 7.473 0 0 1-3.188.719h-.5a10.675 10.675 0 0 1-3.609-1.016 10.944 10.944 0 0 1-2.656-2.265 16.917 16.917 0 0 1-3.297-5.235c-.68-1.914-1.09-3.285-1.234-4.11-.344.618-1.372 2.016-3.079 4.204-1.648 2.2-3.87 3.637-6.671 4.312-3.086.758-5.45.797-7.094.11-1.637-.688-2.969-1.781-4-3.281-1.781-2.602-2.774-5.208-2.985-7.813v-2.047c0-1.719.141-3.297.422-4.734.2-1.02.438-1.91.719-2.672.273-.82.445-1.438.516-1.844 1.367-4.238 3.414-7.39 6.156-9.453 2.8-1.977 4.754-3.11 5.86-3.39 4.374-1.157 7.796-1.157 10.265 0 .344.21.719.417 1.125.624.07-1.03.14-2.023.203-2.984zm-3.078 4.313c-1.024-.063-2.012.148-2.969.625-.96.406-1.851 1.058-2.672 1.953a17.776 17.776 0 0 0-2.265 3.078 24.32 24.32 0 0 0-1.75 3.906 28.907 28.907 0 0 0-1.844 7.484c-.344 2.543-.344 4.496 0 5.86.344 1.437.992 2.914 1.953 4.422.957 1.574 2.29 1.882 4 .922 1.645-.958 3.32-3.149 5.031-6.579 1.645-3.488 2.707-9.445 3.188-17.875l.11-2.968c-.825-.477-1.75-.754-2.782-.828zm0 0" fill="#3e3e3b"/><path fill="#db9595" d="M259.04 51.91c-5.321 2.278-14.927 11.91-31.696 27.848 18.133-14.738 29.101-23.176 31.695-27.848zm0 0"/><g clip-path="url(#a)"><path fill="#db9595" d="M212.2 47.645c25.187.933 39.796 1.828 45.12 0-5.32-1.829-19.93-.934-45.12 0zm0 0"/></g><path fill="#db9595" d="M227.344 15.531c16.77 15.934 26.375 25.567 31.695 27.848-2.594-4.676-13.562-13.113-31.695-27.848zM300.445 79.758c-16.77-15.938-26.379-25.574-31.699-27.848 2.594 4.672 13.563 13.11 31.7 27.848zm0 0"/><g clip-path="url(#b)"><path fill="#db9595" d="M263.89 93.059c1.067-22.114 2.083-34.942 0-39.625-2.077 4.683-1.062 17.511 0 39.625zm0 0"/></g><g clip-path="url(#c)"><path fill="#db9595" d="M315.59 47.645c-25.188-.934-39.797-1.829-45.121 0 5.32 1.828 19.933.933 45.12 0zm0 0"/></g><g clip-path="url(#d)"><path fill="#db9595" d="M263.89 2.23c-1.062 22.118-2.077 34.946 0 39.625 2.083-4.68 1.067-17.507 0-39.625zm0 0"/></g><path fill="#db9595" d="M268.746 43.383c5.32-2.278 14.926-11.914 31.695-27.848-18.132 14.735-29.101 23.172-31.695 27.848zM265.418 43.957c2.426-2.629 5.07-10.633 9.969-24.078-6.078 13.066-9.903 20.691-9.969 24.078zM262.082 44.234c-.242-3.261-4.855-10.578-12.406-23.363 6.297 13.297 9.715 21.106 12.406 23.363zM259.695 46.3c-2.996-2.128-12.101-4.452-27.406-8.757 14.875 5.34 23.555 8.7 27.406 8.758zM265.707 51.059c.238 3.261 4.856 10.578 12.406 23.359-6.297-13.297-9.715-21.102-12.406-23.36zM260.008 49.238c-3.711.207-12.043 4.266-26.594 10.895 15.137-5.531 24.024-8.531 26.594-10.895zM262.367 51.332c-2.426 2.629-5.074 10.629-9.972 24.074 6.082-13.066 9.906-20.687 9.972-24.074zM267.777 46.055c3.711-.211 12.043-4.266 26.594-10.899-15.137 5.535-24.023 8.532-26.594 10.899zM268.09 48.984c2.996 2.13 12.101 4.453 27.406 8.762-14.875-5.344-23.555-8.7-27.406-8.762zm0 0"/><path fill="#f2d2ce" d="M263.809 45.922s-1.407-2.012-3.164-.871c-1.758 1.136 3.32 6.316 3.32 6.316s4.37-6.21 3.008-7.101c-.914-.598-2.715.203-3.168 1.652zm0 0"/></svg>